<svg width="35" height="35" viewBox="0 0 35 35" fill="none" xmlns="http://www.w3.org/2000/svg">
<path d="M11.0068 31.7196C24.2144 31.7196 31.4384 20.7772 31.4384 11.288C31.4384 10.9772 31.4384 10.6678 31.4174 10.3598C32.8228 9.34327 34.0359 8.08463 35 6.64279C33.6895 7.2238 32.2992 7.60464 30.8756 7.77259C32.3747 6.87527 33.4967 5.46374 34.0326 3.80079C32.6231 4.63731 31.0809 5.22679 29.4728 5.54379C28.3901 4.39255 26.9582 3.63023 25.3986 3.37479C23.839 3.11935 22.2387 3.38504 20.8454 4.13075C19.452 4.87645 18.3432 6.06059 17.6907 7.49993C17.0381 8.93926 16.8781 10.5536 17.2354 12.093C14.3805 11.9498 11.5876 11.2078 9.03796 9.9153C6.48835 8.62277 4.23903 6.80855 2.436 4.59039C1.51773 6.17122 1.23648 8.0426 1.64952 9.82351C2.06256 11.6044 3.13883 13.161 4.6592 14.1762C3.51638 14.1427 2.39844 13.8344 1.4 13.2774V13.3684C1.40045 15.0263 1.97437 16.633 3.0244 17.916C4.07442 19.199 5.53592 20.0793 7.161 20.4076C6.10383 20.696 4.99461 20.7381 3.9186 20.5308C4.37765 21.9575 5.27104 23.2051 6.47389 24.0992C7.67674 24.9933 9.12891 25.4892 10.6274 25.5176C9.13856 26.6879 7.43358 27.5531 5.61003 28.0638C3.78647 28.5746 1.8801 28.7207 0 28.494C3.28392 30.6013 7.10489 31.7191 11.0068 31.714" fill="#1DA1F2"/>
</svg>
