<svg width="1366" height="104" viewBox="0 0 1366 104" fill="none" xmlns="http://www.w3.org/2000/svg">
<path d="M85.3726 -42.9116L84.6582 -41.1504L1472.33 367.069L1473.04 365.307L85.3726 -42.9116Z" fill="#EBEAEC"/>
<path d="M269.962 -31.7215L268.736 -30.1777L1445.52 647.235L1446.75 645.691L269.962 -31.7215Z" fill="#EBEAEC"/>
<path d="M772.088 1071.85L774.156 1072.45L1434.25 -554.903L1432.18 -555.511L772.088 1071.85Z" fill="#EBEAEC"/>
<path d="M996.662 227.142L998.73 227.75L1188.13 -239.184L1186.06 -239.792L996.662 227.142Z" fill="#EBEAEC"/>
<path d="M682.77 207.741L684.838 208.35L860.071 -223.657L858.002 -224.265L682.77 207.741Z" fill="#EBEAEC"/>
<path d="M401.09 103.19L403.158 103.799L535.32 -222.024L533.252 -222.633L401.09 103.19Z" fill="#EBEAEC"/>
<path d="M29.939 -7.96433L29.2246 -6.20312L1451.69 412.251L1452.4 410.49L29.939 -7.96433Z" fill="#EBEAEC"/>
</svg>
