<svg width="1366" height="767" viewBox="0 0 1366 767" fill="none" xmlns="http://www.w3.org/2000/svg">
<rect width="1.48962" height="1401.59" transform="matrix(-0.328805 -0.944398 -0.945984 0.324214 1253.33 -5.0708)" fill="#EBEAEC"/>
<rect width="1.49206" height="1382.71" transform="matrix(-0.563038 -0.826431 -0.83052 0.556989 1094.19 -97.022)" fill="#EBEAEC"/>
<rect width="1.49012" height="296.705" transform="matrix(-0.389008 -0.921234 -0.923401 0.383835 1410.04 77.1509)" fill="#EBEAEC"/>
<rect width="1.49887" height="1475.86" transform="matrix(0.945984 -0.324214 -0.328805 -0.944398 1346.28 795.699)" fill="#EBEAEC"/>
<rect width="1.49886" height="394.93" transform="matrix(0.945984 -0.324214 -0.328805 -0.944398 252.146 338.062)" fill="#EBEAEC"/>
<rect width="1.49886" height="220.463" transform="matrix(0.945984 -0.324214 -0.328805 -0.944398 979.535 88.7671)" fill="#EBEAEC"/>
<rect width="1.49886" height="365.389" transform="matrix(0.945984 -0.324214 -0.328805 -0.944398 467.355 322.566)" fill="#EBEAEC"/>
<rect width="1.49886" height="275.579" transform="matrix(0.945984 -0.324214 -0.328805 -0.944398 660.475 239.058)" fill="#EBEAEC"/>
<rect width="1.48962" height="1553.45" transform="matrix(-0.328805 -0.944398 -0.945984 0.324214 1411.13 -18.2144)" fill="#EBEAEC"/>
<rect width="1.48962" height="239.428" transform="matrix(-0.328805 -0.944398 -0.945984 0.324214 1403.42 231.653)" fill="#EBEAEC"/>
<path d="M1270.72 251.145C1214.85 270.294 1153.76 240.474 1134.29 184.534C1114.81 128.595 1144.32 67.7257 1200.19 48.5765C1256.07 29.4273 1317.15 59.2472 1336.63 115.187C1356.1 171.126 1326.59 231.995 1270.72 251.145Z" stroke="#EBEAEC" stroke-width="1.5"/>
</svg>
