<svg width="190" height="27" viewBox="0 0 190 27" fill="none" xmlns="http://www.w3.org/2000/svg">
<path d="M9.10675 26.6221V2.80232H0V0H21.0174V2.80232H11.9099V26.6221H9.10675Z" fill="#3D3745"/>
<path d="M23.8203 26.6221V0H32.2273V2.10174H26.6226V12.9304H31.5267V15.0953H26.6226V24.5203H32.2273V26.6221H23.8203Z" fill="#3D3745"/>
<path d="M117.699 26.6221V0H128.909V2.10174H120.502V12.9518H127.974V15.0837H120.502V24.5203H128.909V26.6221H117.699Z" fill="#3D3745"/>
<path d="M72.2667 7.75042C72.2667 9.50121 71.8302 11.0278 70.9573 12.3302C70.0844 13.6326 68.5834 14.9004 67.0931 15.4128L73.56 26.6221H70.1589L63.8597 15.4688H59.6522V26.6221H56.7461V0H64.7619C66.9548 0 68.7538 0.725935 70.1589 2.17781C71.5641 3.62968 72.2667 5.48722 72.2667 7.75042ZM59.6522 2.62618V12.8426H64.6022C65.986 12.8426 67.1251 12.3622 68.0193 11.4015C68.9134 10.4407 69.3605 9.22365 69.3605 7.75042C69.3605 6.25585 68.9134 5.02817 68.0193 4.06737C67.1251 3.10658 65.986 2.62618 64.6022 2.62618H59.6522Z" fill="#3D3745"/>
<path d="M164.852 7.75042C164.852 9.50121 164.452 11.0278 163.652 12.3302C162.852 13.6326 161.476 14.9004 160.11 15.4128L166.038 26.6221H162.92L157.146 15.4688H153.289V26.6221H150.625V0H157.973C159.983 0 161.632 0.725935 162.92 2.17781C164.208 3.62968 164.852 5.48722 164.852 7.75042ZM153.289 2.62618V12.8426H157.826C159.095 12.8426 160.139 12.3622 160.959 11.4015C161.778 10.4407 162.188 9.22365 162.188 7.75042C162.188 6.25585 161.778 5.02817 160.959 4.06737C160.139 3.10658 159.095 2.62618 157.826 2.62618H153.289Z" fill="#3D3745"/>
<path d="M51.251 7.75042C51.251 9.50121 50.8146 11.0278 49.9417 12.3302C49.0688 13.6326 47.5678 14.9004 46.0775 15.4128L52.5444 26.6221H49.1433L42.8441 15.4688H38.6366V26.6221H35.7305V0H43.7462C45.9391 0 47.7381 0.725935 49.1433 2.17781C50.5485 3.62968 51.251 5.48722 51.251 7.75042ZM38.6366 2.62618V12.8426H43.5866C44.9704 12.8426 46.1094 12.3622 47.0036 11.4015C47.8978 10.4407 48.3449 9.22365 48.3449 7.75042C48.3449 6.25585 47.8978 5.02817 47.0036 4.06737C46.1094 3.10658 44.9704 2.62618 43.5866 2.62618H38.6366Z" fill="#3D3745"/>
<path d="M146.637 7.75042C146.637 9.50121 146.237 11.0278 145.437 12.3302C144.637 13.6326 143.261 14.9004 141.895 15.4128L147.823 26.6221H144.705L138.931 15.4688H135.074V26.6221H132.41V0H139.758C141.768 0 143.417 0.725935 144.705 2.17781C145.993 3.62968 146.637 5.48722 146.637 7.75042ZM135.074 2.62618V12.8426H139.612C140.88 12.8426 141.924 12.3622 142.744 11.4015C143.564 10.4407 143.973 9.22365 143.973 7.75042C143.973 6.25585 143.564 5.02817 142.744 4.06737C141.924 3.10658 140.88 2.62618 139.612 2.62618H135.074Z" fill="#3D3745"/>
<path d="M93.8224 26.6221L91.0749 18.9157H81.2668L78.5192 26.6221H75.6621L84.9771 0H87.3645L96.6795 26.6221H93.8224ZM82.0495 16.5958H90.3313L86.1513 3.46087L82.0495 16.5958Z" fill="#3D3745"/>
<path d="M186.299 26.6221L183.551 18.9157H173.743L170.996 26.6221H168.139L177.454 0H179.841L189.156 26.6221H186.299ZM174.526 16.5958H182.808L178.628 3.46087L174.526 16.5958Z" fill="#3D3745"/>
<path d="M105.787 26.6221V0H114.194V2.10174H108.589V12.9623H114.194V15.0691H108.589V26.6221H105.787Z" fill="#3D3745"/>
</svg>
